<svg xmlns="http://www.w3.org/2000/svg" viewBox="0 0 98.27 98.35"><defs><style>.cls-1{fill:#b6e6b0;}.cls-2{fill:#fff;}</style></defs><g id="Layer_2" data-name="Layer 2"><g id="Frames"><ellipse class="cls-1" cx="49.14" cy="49.17" rx="49.14" ry="49.17"/><path class="cls-2" d="M62.59,27.7c-5.14,0-10.67,1.06-14.49,4-3.82-2.9-9.35-4-14.48-4a28.39,28.39,0,0,0-11.28,2.09,5.37,5.37,0,0,0-3.21,4.87V64.4a5.25,5.25,0,0,0,6.53,5.11,32.46,32.46,0,0,1,8-1,27.86,27.86,0,0,1,12,2.43,5.4,5.4,0,0,0,4.92,0,27.4,27.4,0,0,1,12-2.43,32.46,32.46,0,0,1,8,1,5.23,5.23,0,0,0,6.53-5.11V34.66a5.37,5.37,0,0,0-3.21-4.87A28.15,28.15,0,0,0,62.59,27.7Zm9.22,33.56a2.67,2.67,0,0,1-3.16,2.59,33.14,33.14,0,0,0-6.06-.53A31.73,31.73,0,0,0,48.1,67.27V36.93a31.73,31.73,0,0,1,14.49-4,32.81,32.81,0,0,1,7.11.74,2.67,2.67,0,0,1,2.11,2.58Z"/><path class="cls-2" d="M53.32,44.87A2,2,0,0,1,52.71,41a35.06,35.06,0,0,1,14.12-1.19,2,2,0,1,1-.45,3.93,31,31,0,0,0-12.46,1C53.71,44.81,53.5,44.87,53.32,44.87Z"/><path class="cls-2" d="M53.32,51.88A2,2,0,0,1,52.71,48a35,35,0,0,1,14.12-1.19,2,2,0,1,1-.45,3.93,31.21,31.21,0,0,0-12.46,1A2.68,2.68,0,0,1,53.32,51.88Z"/><path class="cls-2" d="M53.32,58.89A2,2,0,0,1,52.71,55a35,35,0,0,1,14.12-1.19,2,2,0,1,1-.45,3.93,31.21,31.21,0,0,0-12.46,1A2.68,2.68,0,0,1,53.32,58.89Z"/></g></g></svg>