<svg xmlns="http://www.w3.org/2000/svg" viewBox="0 0 98.53 103.23"><defs><style>.cls-1{fill:#6594ca;}.cls-2{fill:none;stroke:#fff;stroke-linecap:round;stroke-linejoin:round;stroke-width:3.3px;}</style></defs><g id="Layer_2" data-name="Layer 2"><g id="Frames"><ellipse class="cls-1" cx="49.26" cy="51.62" rx="49.26" ry="51.62"/><path class="cls-2" d="M42.92,40.45,84.15,55.89a3.36,3.36,0,0,1,2.14,3.17v6.07a1.64,1.64,0,0,1-1.61,1.68H13.78a1.65,1.65,0,0,1-1.62-1.68V43.18a3.31,3.31,0,0,1,3.23-3.38h2a1.52,1.52,0,0,1,1.4.91c1.05,2.36,6.08,4.15,11.08,4.15,5.93,0,9.81-1.57,10.94-3.71A1.68,1.68,0,0,1,42.92,40.45Z"/><line class="cls-2" x1="12.16" y1="60.06" x2="86.29" y2="60.06"/><line class="cls-2" x1="49.47" y1="42.91" x2="46" y2="46.55"/><line class="cls-2" x1="55.41" y1="45.13" x2="52.45" y2="48.24"/><path class="cls-2" d="M67,49.45a3.78,3.78,0,0,1-3.23,3.86H54.06a4.94,4.94,0,0,0-4.83,5.06v1.69"/><path class="cls-2" d="M21.83,60.06a9.91,9.91,0,0,0-9.67-10.13"/></g></g></svg>