<svg xmlns="http://www.w3.org/2000/svg" viewBox="0 0 98.47 103.23"><defs><style>.cls-1{fill:#ebeeef;}.cls-2{fill:#26376b;}</style></defs><g id="Layer_2" data-name="Layer 2"><g id="Frames"><ellipse class="cls-1" cx="49.24" cy="51.62" rx="49.24" ry="51.62"/><path class="cls-2" d="M59.28,42.89H33.08l0-3.77A13.53,13.53,0,0,1,45,25.43L45,28a6.19,6.19,0,0,0-4.76,6.12,1.22,1.22,0,0,0,1.19,1.24H51a1.22,1.22,0,0,0,1.19-1.24h0A6.19,6.19,0,0,0,47.37,28l0-3.91a1.22,1.22,0,0,0-1.19-1.24c-8.56,0-15.48,7.28-15.49,16.24l0,3.77H25.92V79.11a1.19,1.19,0,1,0,2.38,0V45.39h31v20H73.57V79.11a1.19,1.19,0,1,0,2.38,0V42.89Zm-9.72-10H42.82a3.54,3.54,0,0,1,4.56-2.29A3.67,3.67,0,0,1,49.56,32.9Zm24,30H61.66V55.38H73.57Zm-11.91-10V45.39H73.57v7.49Z"/><path class="cls-2" d="M70,47.88H65.23a1.25,1.25,0,0,0,0,2.5H70a1.25,1.25,0,0,0,0-2.5Z"/><path class="cls-2" d="M65.23,60.37H70a1.25,1.25,0,0,0,0-2.5H65.23a1.25,1.25,0,0,0,0,2.5Z"/></g></g></svg>